<?xml version="1.0"?><svg xmlns="http://www.w3.org/2000/svg" viewBox="0 0 128 128"><g fill="#1d1d1b"><path d="m123.71 82.57c.25-12.07.41-35.81.16-46.16s-5.75-14.54-10.19-14.87-18.07-.41-47.56-.58c-29.49-.16-50.27.82-53.97 1.23s-6.82 6.33-6.82 10.19c0 0-.9 19.88-.99 35.32-.08 15.44-.9 23.08.25 29.08s4.93 9.04 10.19 9.69c5.26.66 19.63.66 34.99.49 15.36-.16 47.64-.9 61.85-1.31s11.83-11.01 12.07-23.08zm-107.11-57.75c8.21-.33 24.64-1.15 48.96-.99 24.31.16 42.47.08 45.59.82s5.83 3.29 5.83 3.86-33.51 28.09-37.79 31.38c-4.27 3.29-9.12 6.24-15.85 6.98-6.74.74-23.33-11.5-32.36-17.82-9.04-6.32-21.77-16.35-21.77-16.35s-.82-7.56 7.39-7.89zm-9.45 57.5c-.16-9.28.57-29.16.49-35.73s.57-10.76.57-10.76 7.89 7.64 20.21 16.18 16.76 11.01 16.76 11.01-8.62 6.16-20.12 16.51-15.28 16.43-15.28 16.43-2.46-4.35-2.63-13.64zm47.15 16.68c-25.3 0-39.18.74-42.39-1.31 0 0 11.17-11.91 19.8-19.71 8.62-7.8 17.17-12.9 17.17-12.9s4.6 5.5 13.8 5.83 16.1-6 16.1-6 7.48 4.85 17.83 14.7c10.35 9.86 16.02 18.4 16.02 18.4s-33.02.99-58.32.99zm63.66-29.49c-.16 12.16-.25 20.45-.25 22.92s-1.97 4.35-2.38 4.27c0 0-4.35-6.74-13.88-16.84s-19.71-17.09-19.71-17.09 9.94-8.71 18.32-15.52c8.38-6.82 18.07-14.62 18.07-14.62s0 24.72-.16 36.88z"/><path d="m10.19 47.17c.03-.62 3.04-.74 3.2.33s.41 10.02-.16 10.76-3.04.82-3.12.16 0-9.69.08-11.25z"/><path d="m14.46 30.98c.32-.76 2.71-1.64 5.59-2.38s5.34-.99 6.49 0 1.48 2.14.74 2.79-3.78 0-6.32.66c-2.55.66-4.85 1.64-5.34 1.72s-1.4-2.22-1.15-2.79z"/><path d="m80.51 90.54c-.12-.43 2.55-1.48 3.04-1.31s2.87 3.86 2.87 4.6-1.89 1.23-2.22 1.23-3.37-3.37-3.7-4.52z"/><path d="m86.34 89.3c-.2-.59 1.56-1.72 2.22-1.48s5.5 6.57 5.5 6.98-1.31 1.48-2.05 1.15-5.34-5.67-5.67-6.65z"/><path d="m90.94 87.17c.08-.57 2.3-1.31 2.87-1.31s7.56 8.05 7.64 8.54-1.97 1.31-2.63 1.15-7.89-8.38-7.89-8.38z"/><path d="m99.24 88.24c-.54-.98 2.22-.66 2.71-.41s3.53 4.19 3.53 4.6-2.05.74-2.79.41-2.96-3.7-3.45-4.6z"/><path d="m102.6 74.85c-.4-.88 1.97-1.97 2.63-1.81s7.97 9.94 7.97 10.19-.9 1.48-1.56 1.4-8.62-8.87-9.04-9.77z"/><path d="m105.89 70.49c-.4-.88 1.97-1.97 2.63-1.81s6.16 7.15 6.16 7.39-.9 1.48-1.56 1.4-6.82-6.08-7.23-6.98z"/><path d="m107.53 63.68c-.4-.88 1.97-1.97 2.63-1.81s4.93 6 4.93 6.24-.9 1.48-1.56 1.4-5.59-4.93-6-5.83z"/><path d="m109.59 58.25c-.4-.88 1.97-1.97 2.63-1.81s2.3 3.29 2.3 3.53-.9 1.48-1.56 1.4-2.96-2.22-3.37-3.12z"/><path d="m111.83 52.45c.74-1.65 3.01-.11 2.19 1.2s-2.96.49-2.19-1.2z"/></g></svg>